<svg id="Layer_1" data-name="Layer 1" xmlns="http://www.w3.org/2000/svg" xmlns:xlink="http://www.w3.org/1999/xlink" viewBox="0 0 512 512"><defs><style>.cls-1{fill:url(#Adsız_degrade_8);}</style><linearGradient id="Adsız_degrade_8" y1="256" x2="512" y2="256" gradientUnits="userSpaceOnUse"><stop offset="0" stop-color="#fff"/><stop offset="0" stop-color="#216383"/><stop offset="1" stop-color="#71bfbc"/></linearGradient></defs><path class="cls-1" d="M318.06,0C232.14,0,159.11,56.17,133.71,133.71,56.17,159.1,0,232.14,0,318.06,0,425,87,512,193.94,512c85.92,0,159-56.17,184.35-133.71C455.83,352.89,512,279.86,512,193.94,512,87,425,0,318.06,0ZM193.94,465.45c-81.27,0-147.4-66.12-147.4-147.39a147.53,147.53,0,0,1,77.67-129.83c0,1.9-.09,3.8-.09,5.71,0,106.94,87,193.94,193.94,193.94,1.91,0,3.81,0,5.71-.09A147.52,147.52,0,0,1,193.94,465.45ZM387.79,323.77c0-1.9.09-3.8.09-5.71,0-106.94-87-193.94-193.94-193.94-1.91,0-3.81,0-5.71.09A147.53,147.53,0,0,1,318.06,46.55c81.28,0,147.4,66.12,147.4,147.39A147.55,147.55,0,0,1,387.79,323.77Z"/></svg>